<svg version="1.1" id="Layer_1" xmlns="http://www.w3.org/2000/svg" xmlns:xlink="http://www.w3.org/1999/xlink" x="0px" y="0px"
	 width="100%" viewBox="0 0 744 176" enable-background="new 0 0 744 176" xml:space="preserve">
<path fill="#010101" opacity="1.000000" stroke="none" 
	d="
M533.000000,177.000000 
	C355.381470,177.000000 178.262924,177.000000 1.072198,177.000000 
	C1.072198,118.397484 1.072198,59.794846 1.072198,1.096106 
	C248.999985,1.096106 496.999969,1.096106 744.971191,1.096106 
	C744.971191,59.737022 744.971191,118.368523 744.971191,177.000000 
	C674.461548,177.000000 603.980774,177.000000 533.000000,177.000000 
M400.627747,130.136169 
	C413.617523,121.220154 420.544830,109.062271 420.979248,93.324097 
	C418.171112,93.324097 415.936523,93.324097 413.758453,93.324097 
	C412.096100,112.324272 400.118683,126.389946 383.683990,128.951401 
	C366.353760,131.652435 349.355957,122.678558 343.335541,107.649681 
	C336.838806,91.431740 341.767853,73.320374 355.302795,63.676823 
	C368.457550,54.304146 386.853699,54.035004 397.526917,63.375725 
	C395.513397,63.633785 393.806793,63.852512 392.129700,64.067459 
	C392.129700,66.461220 392.129700,68.677078 392.129700,71.015800 
	C396.780212,71.015800 401.159576,71.397324 405.410980,70.826370 
	C407.091217,70.600739 409.598419,68.400497 409.801788,66.847084 
	C410.393738,62.325005 410.011841,57.675446 410.011841,52.663754 
	C406.763336,53.433567 402.677551,50.677269 402.344299,56.616283 
	C401.356781,56.201038 400.565521,55.988255 399.901947,55.571960 
	C375.993744,40.573368 344.630951,52.553963 335.388489,78.557823 
	C327.703186,100.180725 339.389313,125.743332 360.803162,133.819824 
	C374.490356,138.982132 387.453156,137.709518 400.627747,130.136169 
M245.590363,76.138565 
	C249.654617,84.700241 250.359787,93.578667 247.976654,102.704552 
	C244.280472,116.858566 234.880096,125.527878 220.962723,128.656433 
	C206.490906,131.909637 194.161911,127.277565 184.482635,115.955849 
	C178.900696,109.426727 176.886856,101.493881 176.215668,93.331467 
	C173.502792,93.331467 171.274002,93.331467 169.046234,93.331467 
	C169.746948,113.960930 182.640488,130.375702 201.916031,135.521729 
	C211.201233,138.000610 220.345917,137.408676 229.224884,133.890579 
	C241.787918,128.912720 249.057190,119.250595 254.626038,107.144791 
	C259.234467,97.126793 255.852295,74.939461 246.227432,64.171631 
	C233.795364,50.263206 211.799347,42.287743 187.567810,56.690086 
	C187.598816,50.171913 183.173645,53.629436 179.988663,52.738937 
	C179.988663,57.572426 180.063812,61.875439 179.964981,66.174454 
	C179.885422,69.635201 181.753754,70.960968 184.877487,70.997849 
	C189.180099,71.048660 193.483734,71.010574 197.987518,71.010574 
	C197.987518,68.612839 197.987518,66.489830 197.987518,64.168762 
	C196.526123,63.890369 195.017105,63.602905 193.287247,63.273376 
	C203.063202,53.008141 232.553848,52.329739 245.590363,76.138565 
M78.172050,123.231880 
	C78.170128,103.746048 78.081429,84.259499 78.243340,64.775032 
	C78.273804,61.108776 77.330391,59.647846 73.502113,59.929462 
	C69.360794,60.234104 65.165092,60.218864 61.020622,59.937664 
	C57.218285,59.679672 56.092575,61.231079 56.112732,64.837852 
	C56.218826,83.823479 56.215660,102.810303 56.106342,121.795891 
	C56.089100,124.789848 57.074371,126.074585 60.064354,126.028381 
	C65.059486,125.951172 70.060463,126.108063 75.049904,125.922417 
	C76.098427,125.883400 77.107697,124.789536 78.172050,123.231880 
M41.840771,79.501175 
	C41.840683,74.511185 41.749657,69.518921 41.873993,64.532028 
	C41.950829,61.450153 40.931072,59.859047 37.594162,59.959415 
	C32.941074,60.099380 28.277449,60.099388 23.624584,59.956207 
	C20.899923,59.872364 19.770489,60.731312 19.783766,63.636429 
	C19.873457,83.263329 19.854860,102.890945 19.790674,122.518059 
	C19.782324,125.071449 20.663252,126.120117 23.274475,126.043213 
	C27.761599,125.911057 32.271027,125.772209 36.741703,126.072998 
	C40.750504,126.342728 41.947166,124.771400 41.901447,120.919022 
	C41.741562,107.447937 41.840328,93.973770 41.840771,79.501175 
M535.954163,125.074120 
	C536.362488,123.859886 537.121887,122.647011 537.126587,121.431198 
	C537.200439,102.464027 537.220703,83.496162 537.085510,64.529655 
	C537.075562,63.133839 536.023254,60.838840 535.027161,60.574074 
	C533.614441,60.198608 531.468567,60.903225 530.232300,61.891911 
	C527.649414,63.957420 525.261841,66.348640 523.141785,68.895515 
	C517.704590,75.427376 511.691071,80.077606 502.362366,78.269646 
	C498.926514,77.603760 496.884003,79.802933 496.956848,83.641991 
	C497.073547,89.795914 497.186493,95.962288 496.919434,102.106812 
	C496.736359,106.318253 498.799500,108.414040 502.476593,107.732979 
	C511.789520,106.008057 517.840088,110.577560 523.214233,117.192513 
	C524.988098,119.375931 526.983704,121.492928 529.248474,123.126717 
	C530.968872,124.367851 533.275879,124.795868 535.954163,125.074120 
M577.449219,89.715263 
	C578.369263,103.039612 573.661438,114.379509 565.328003,123.809700 
	C566.893188,125.715065 568.239197,127.353630 569.566956,128.969925 
	C591.936584,109.034088 588.028381,71.480385 569.351501,57.281849 
	C567.918396,58.791016 566.479980,60.305809 565.106201,61.752563 
	C573.996765,73.784477 575.894714,77.979324 577.449219,89.715263 
M566.036499,110.471558 
	C573.482727,94.725952 570.682556,76.604988 559.769592,67.915520 
	C557.896851,69.286987 556.069519,70.625237 554.339050,71.892487 
	C565.764526,86.205467 565.687805,100.074615 554.432495,114.025108 
	C556.185181,115.467209 557.978455,116.942719 559.999084,118.605278 
	C561.746338,116.352676 563.759827,113.756882 566.036499,110.471558 
M374.584045,97.845695 
	C376.075317,104.738243 379.843475,108.161720 385.512665,107.774666 
	C390.979828,107.401398 394.882019,103.001411 395.093201,96.412102 
	C395.181396,93.660355 394.824493,90.757347 393.982727,88.144524 
	C392.684174,84.113831 389.407898,82.198746 385.243500,82.000618 
	C381.249634,81.810600 377.800842,83.426559 376.297638,87.045395 
	C375.016296,90.130241 374.919830,93.707275 374.584045,97.845695 
M210.300476,93.731644 
	C210.135864,98.932968 211.276886,103.705818 216.063263,106.495491 
	C219.994095,108.786514 225.531845,107.585083 228.357895,104.391991 
	C231.660416,100.660576 232.278366,91.697792 229.512070,86.944511 
	C227.015564,82.654808 223.029175,81.211967 218.487106,82.272484 
	C213.118958,83.525894 210.939621,87.716095 210.300476,93.731644 
M555.543213,95.094345 
	C556.078918,88.380234 553.988098,82.656380 549.643982,78.045135 
	C547.644226,79.716766 545.916260,81.161179 544.181519,82.611275 
	C549.691895,89.726067 549.520325,96.639046 544.629395,102.747375 
	C546.221619,104.939682 547.575439,106.803711 549.922119,110.034729 
	C552.130005,104.318977 553.751831,100.120529 555.543213,95.094345 
M364.381134,92.744339 
	C364.381134,97.484566 364.381134,102.224785 364.381134,106.957832 
	C366.833954,106.957832 368.591400,106.957832 370.423767,106.957832 
	C370.423767,98.584068 370.423767,90.502762 370.423767,82.389366 
	C358.414917,84.315430 358.414917,84.315430 359.278656,89.632530 
	C363.532349,88.794151 363.532349,88.794151 364.381134,92.744339 
M200.408188,98.417496 
	C200.408188,101.185112 200.408188,103.952736 200.408188,106.905624 
	C202.580872,106.905624 204.292755,106.905624 205.965851,106.905624 
	C205.965851,98.528954 205.965851,90.475121 205.965851,82.374962 
	C194.082016,84.593971 194.082016,84.593971 195.048416,89.434357 
	C196.730835,89.286949 198.408508,89.139969 200.407867,88.964798 
	C200.407867,92.180679 200.407867,94.818810 200.408188,98.417496 
M168.997726,70.494049 
	C168.997955,72.647476 169.083954,74.805092 168.979279,76.953407 
	C168.800186,80.629440 170.758499,82.005219 174.128265,82.003929 
	C178.390121,82.002296 182.651962,82.003540 186.794586,82.003540 
	C186.794586,79.301781 186.794586,77.107376 186.794586,74.589706 
	C183.157623,74.589706 179.895782,74.589706 176.154907,74.589706 
	C176.154907,70.889450 176.154907,67.501328 176.154907,64.010399 
	C173.575317,64.010399 171.500717,64.010399 168.997757,64.010399 
	C168.997757,65.969452 168.997757,67.750809 168.997726,70.494049 
M408.533203,82.004181 
	C410.852356,82.003632 413.179535,81.880226 415.488892,82.030342 
	C419.276886,82.276588 421.037018,80.579193 421.010315,76.832047 
	C420.979950,72.574394 421.003326,68.316345 421.003326,64.041054 
	C418.397461,64.041054 416.316956,64.041054 413.736511,64.041054 
	C413.736511,67.618942 413.736511,71.006958 413.736511,74.868378 
	C409.867249,74.868378 406.479889,74.868378 403.020508,74.868378 
	C403.020508,77.446663 403.020508,79.520882 403.020508,82.002754 
	C404.661224,82.002754 406.112793,82.002754 408.533203,82.004181 
z"/>
<path fill="#F1F1F1" opacity="1.000000" stroke="none" 
	d="
M400.319214,130.330475 
	C387.453156,137.709518 374.490356,138.982132 360.803162,133.819824 
	C339.389313,125.743332 327.703186,100.180725 335.388489,78.557823 
	C344.630951,52.553963 375.993744,40.573368 399.901947,55.571960 
	C400.565521,55.988255 401.356781,56.201038 402.344299,56.616283 
	C402.677551,50.677269 406.763336,53.433567 410.011841,52.663754 
	C410.011841,57.675446 410.393738,62.325005 409.801788,66.847084 
	C409.598419,68.400497 407.091217,70.600739 405.410980,70.826370 
	C401.159576,71.397324 396.780212,71.015800 392.129700,71.015800 
	C392.129700,68.677078 392.129700,66.461220 392.129700,64.067459 
	C393.806793,63.852512 395.513397,63.633785 397.526917,63.375725 
	C386.853699,54.035004 368.457550,54.304146 355.302795,63.676823 
	C341.767853,73.320374 336.838806,91.431740 343.335541,107.649681 
	C349.355957,122.678558 366.353760,131.652435 383.683990,128.951401 
	C400.118683,126.389946 412.096100,112.324272 413.758453,93.324097 
	C415.936523,93.324097 418.171112,93.324097 420.979248,93.324097 
	C420.544830,109.062271 413.617523,121.220154 400.319214,130.330475 
z"/>
<path fill="#F3F3F3" opacity="1.000000" stroke="none" 
	d="
M245.379242,75.824890 
	C232.553848,52.329739 203.063202,53.008141 193.287247,63.273376 
	C195.017105,63.602905 196.526123,63.890369 197.987518,64.168762 
	C197.987518,66.489830 197.987518,68.612839 197.987518,71.010574 
	C193.483734,71.010574 189.180099,71.048660 184.877487,70.997849 
	C181.753754,70.960968 179.885422,69.635201 179.964981,66.174454 
	C180.063812,61.875439 179.988663,57.572426 179.988663,52.738937 
	C183.173645,53.629436 187.598816,50.171913 187.567810,56.690086 
	C211.799347,42.287743 233.795364,50.263206 246.227432,64.171631 
	C255.852295,74.939461 259.234467,97.126793 254.626038,107.144791 
	C249.057190,119.250595 241.787918,128.912720 229.224884,133.890579 
	C220.345917,137.408676 211.201233,138.000610 201.916031,135.521729 
	C182.640488,130.375702 169.746948,113.960930 169.046234,93.331467 
	C171.274002,93.331467 173.502792,93.331467 176.215668,93.331467 
	C176.886856,101.493881 178.900696,109.426727 184.482635,115.955849 
	C194.161911,127.277565 206.490906,131.909637 220.962723,128.656433 
	C234.880096,125.527878 244.280472,116.858566 247.976654,102.704552 
	C250.359787,93.578667 249.654617,84.700241 245.379242,75.824890 
z"/>
<path fill="#F6F6F6" opacity="1.000000" stroke="none" 
	d="
M78.153549,123.706818 
	C77.107697,124.789536 76.098427,125.883400 75.049904,125.922417 
	C70.060463,126.108063 65.059486,125.951172 60.064354,126.028381 
	C57.074371,126.074585 56.089100,124.789848 56.106342,121.795891 
	C56.215660,102.810303 56.218826,83.823479 56.112732,64.837852 
	C56.092575,61.231079 57.218285,59.679672 61.020622,59.937664 
	C65.165092,60.218864 69.360794,60.234104 73.502113,59.929462 
	C77.330391,59.647846 78.273804,61.108776 78.243340,64.775032 
	C78.081429,84.259499 78.170128,103.746048 78.153549,123.706818 
z"/>
<path fill="#F6F6F6" opacity="1.000000" stroke="none" 
	d="
M41.840805,80.000977 
	C41.840328,93.973770 41.741562,107.447937 41.901447,120.919022 
	C41.947166,124.771400 40.750504,126.342728 36.741703,126.072998 
	C32.271027,125.772209 27.761599,125.911057 23.274475,126.043213 
	C20.663252,126.120117 19.782324,125.071449 19.790674,122.518059 
	C19.854860,102.890945 19.873457,83.263329 19.783766,63.636429 
	C19.770489,60.731312 20.899923,59.872364 23.624584,59.956207 
	C28.277449,60.099388 32.941074,60.099380 37.594162,59.959415 
	C40.931072,59.859047 41.950829,61.450153 41.873993,64.532028 
	C41.749657,69.518921 41.840683,74.511185 41.840805,80.000977 
z"/>
<path fill="#F6F6F6" opacity="1.000000" stroke="none" 
	d="
M535.638062,125.329895 
	C533.275879,124.795868 530.968872,124.367851 529.248474,123.126717 
	C526.983704,121.492928 524.988098,119.375931 523.214233,117.192513 
	C517.840088,110.577560 511.789520,106.008057 502.476593,107.732979 
	C498.799500,108.414040 496.736359,106.318253 496.919434,102.106812 
	C497.186493,95.962288 497.073547,89.795914 496.956848,83.641991 
	C496.884003,79.802933 498.926514,77.603760 502.362366,78.269646 
	C511.691071,80.077606 517.704590,75.427376 523.141785,68.895515 
	C525.261841,66.348640 527.649414,63.957420 530.232300,61.891911 
	C531.468567,60.903225 533.614441,60.198608 535.027161,60.574074 
	C536.023254,60.838840 537.075562,63.133839 537.085510,64.529655 
	C537.220703,83.496162 537.200439,102.464027 537.126587,121.431198 
	C537.121887,122.647011 536.362488,123.859886 535.638062,125.329895 
M520.536987,103.843681 
	C523.369873,106.791954 526.202759,109.740234 529.747681,113.429558 
	C529.747681,99.402458 529.747681,86.595001 529.747681,73.072655 
	C522.209534,79.898285 516.831665,89.864594 504.475769,85.233269 
	C504.475769,90.817688 504.475769,95.371407 504.475769,99.745522 
	C509.790283,101.384422 515.950867,97.652519 520.536987,103.843681 
z"/>
<path fill="#F1F1F1" opacity="1.000000" stroke="none" 
	d="
M577.441711,89.248207 
	C575.894714,77.979324 573.996765,73.784477 565.106201,61.752563 
	C566.479980,60.305809 567.918396,58.791016 569.351501,57.281849 
	C588.028381,71.480385 591.936584,109.034088 569.566956,128.969925 
	C568.239197,127.353630 566.893188,125.715065 565.328003,123.809700 
	C573.661438,114.379509 578.369263,103.039612 577.441711,89.248207 
z"/>
<path fill="#F1F1F1" opacity="1.000000" stroke="none" 
	d="
M565.904907,110.816330 
	C563.759827,113.756882 561.746338,116.352676 559.999084,118.605278 
	C557.978455,116.942719 556.185181,115.467209 554.432495,114.025108 
	C565.687805,100.074615 565.764526,86.205467 554.339050,71.892487 
	C556.069519,70.625237 557.896851,69.286987 559.769592,67.915520 
	C570.682556,76.604988 573.482727,94.725952 565.904907,110.816330 
z"/>
<path fill="#EBEBEB" opacity="1.000000" stroke="none" 
	d="
M374.441650,97.456131 
	C374.919830,93.707275 375.016296,90.130241 376.297638,87.045395 
	C377.800842,83.426559 381.249634,81.810600 385.243500,82.000618 
	C389.407898,82.198746 392.684174,84.113831 393.982727,88.144524 
	C394.824493,90.757347 395.181396,93.660355 395.093201,96.412102 
	C394.882019,103.001411 390.979828,107.401398 385.512665,107.774666 
	C379.843475,108.161720 376.075317,104.738243 374.441650,97.456131 
M384.648010,102.543465 
	C388.423492,102.321762 389.248871,99.389305 389.008392,96.670654 
	C388.736359,93.595253 387.481018,90.575424 386.304382,87.672852 
	C386.213165,87.447876 382.750793,87.815033 381.918274,88.802849 
	C378.780823,92.525352 379.865967,99.034691 384.648010,102.543465 
z"/>
<path fill="#EAEAEA" opacity="1.000000" stroke="none" 
	d="
M210.352509,93.320190 
	C210.939621,87.716095 213.118958,83.525894 218.487106,82.272484 
	C223.029175,81.211967 227.015564,82.654808 229.512070,86.944511 
	C232.278366,91.697792 231.660416,100.660576 228.357895,104.391991 
	C225.531845,107.585083 219.994095,108.786514 216.063263,106.495491 
	C211.276886,103.705818 210.135864,98.932968 210.352509,93.320190 
M217.846512,88.525192 
	C217.294189,90.567322 216.330521,92.600182 216.284256,94.653717 
	C216.211716,97.874214 216.128418,102.011383 220.485580,102.294884 
	C225.200180,102.601639 224.910278,98.385201 225.113678,95.150291 
	C225.205643,93.687454 225.279770,92.046371 224.728561,90.756943 
	C223.565887,88.037193 221.944427,85.591507 217.846512,88.525192 
z"/>
<path fill="#EFEFEF" opacity="1.000000" stroke="none" 
	d="
M555.458374,95.508217 
	C553.751831,100.120529 552.130005,104.318977 549.922119,110.034729 
	C547.575439,106.803711 546.221619,104.939682 544.629395,102.747375 
	C549.520325,96.639046 549.691895,89.726067 544.181519,82.611275 
	C545.916260,81.161179 547.644226,79.716766 549.643982,78.045135 
	C553.988098,82.656380 556.078918,88.380234 555.458374,95.508217 
z"/>
<path fill="#DDDDDD" opacity="1.000000" stroke="none" 
	d="
M364.381958,92.282120 
	C363.532349,88.794151 363.532349,88.794151 359.278656,89.632530 
	C358.414917,84.315430 358.414917,84.315430 370.423767,82.389366 
	C370.423767,90.502762 370.423767,98.584068 370.423767,106.957832 
	C368.591400,106.957832 366.833954,106.957832 364.381134,106.957832 
	C364.381134,102.224785 364.381134,97.484566 364.381958,92.282120 
z"/>
<path fill="#E5E5E5" opacity="1.000000" stroke="none" 
	d="
M200.408020,97.937218 
	C200.407867,94.818810 200.407867,92.180679 200.407867,88.964798 
	C198.408508,89.139969 196.730835,89.286949 195.048416,89.434357 
	C194.082016,84.593971 194.082016,84.593971 205.965851,82.374962 
	C205.965851,90.475121 205.965851,98.528954 205.965851,106.905624 
	C204.292755,106.905624 202.580872,106.905624 200.408188,106.905624 
	C200.408188,103.952736 200.408188,101.185112 200.408020,97.937218 
z"/>
<path fill="#F7F7F7" opacity="1.000000" stroke="none" 
	d="
M168.997742,70.013107 
	C168.997757,67.750809 168.997757,65.969452 168.997757,64.010399 
	C171.500717,64.010399 173.575317,64.010399 176.154907,64.010399 
	C176.154907,67.501328 176.154907,70.889450 176.154907,74.589706 
	C179.895782,74.589706 183.157623,74.589706 186.794586,74.589706 
	C186.794586,77.107376 186.794586,79.301781 186.794586,82.003540 
	C182.651962,82.003540 178.390121,82.002296 174.128265,82.003929 
	C170.758499,82.005219 168.800186,80.629440 168.979279,76.953407 
	C169.083954,74.805092 168.997955,72.647476 168.997742,70.013107 
z"/>
<path fill="#F9F9F9" opacity="1.000000" stroke="none" 
	d="
M408.048798,82.003464 
	C406.112793,82.002754 404.661224,82.002754 403.020508,82.002754 
	C403.020508,79.520882 403.020508,77.446663 403.020508,74.868378 
	C406.479889,74.868378 409.867249,74.868378 413.736511,74.868378 
	C413.736511,71.006958 413.736511,67.618942 413.736511,64.041054 
	C416.316956,64.041054 418.397461,64.041054 421.003326,64.041054 
	C421.003326,68.316345 420.979950,72.574394 421.010315,76.832047 
	C421.037018,80.579193 419.276886,82.276588 415.488892,82.030342 
	C413.179535,81.880226 410.852356,82.003632 408.048798,82.003464 
z"/>
<path fill="#050505" opacity="1.000000" stroke="none" 
	d="
M520.284607,103.572327 
	C515.950867,97.652519 509.790283,101.384422 504.475769,99.745522 
	C504.475769,95.371407 504.475769,90.817688 504.475769,85.233269 
	C516.831665,89.864594 522.209534,79.898285 529.747681,73.072655 
	C529.747681,86.595001 529.747681,99.402458 529.747681,113.429558 
	C526.202759,109.740234 523.369873,106.791954 520.284607,103.572327 
z"/>
<path fill="#0B0B0B" opacity="1.000000" stroke="none" 
	d="
M384.218323,102.481171 
	C379.865967,99.034691 378.780823,92.525352 381.918274,88.802849 
	C382.750793,87.815033 386.213165,87.447876 386.304382,87.672852 
	C387.481018,90.575424 388.736359,93.595253 389.008392,96.670654 
	C389.248871,99.389305 388.423492,102.321762 384.218323,102.481171 
z"/>
<path fill="#0B0B0B" opacity="1.000000" stroke="none" 
	d="
M218.115143,88.234337 
	C221.944427,85.591507 223.565887,88.037193 224.728561,90.756943 
	C225.279770,92.046371 225.205643,93.687454 225.113678,95.150291 
	C224.910278,98.385201 225.200180,102.601639 220.485580,102.294884 
	C216.128418,102.011383 216.211716,97.874214 216.284256,94.653717 
	C216.330521,92.600182 217.294189,90.567322 218.115143,88.234337 
z"/>
</svg>