<svg xmlns="http://www.w3.org/2000/svg"
     viewBox="15.784 55.896 66.460 74.207"
     width="66.460" height="74.207" fill="none">
  <path fill="#F6F6F6" opacity="1.000000" d=" M78.153549,123.706818   C77.107697,124.789536 76.098427,125.883400 75.049904,125.922417   C70.060463,126.108063 65.059486,125.951172 60.064354,126.028381   C57.074371,126.074585 56.089100,124.789848 56.106342,121.795891   C56.215660,102.810303 56.218826,83.823479 56.112732,64.837852   C56.092575,61.231079 57.218285,59.679672 61.020622,59.937664   C65.165092,60.218864 69.360794,60.234104 73.502113,59.929462   C77.330391,59.647846 78.273804,61.108776 78.243340,64.775032   C78.081429,84.259499 78.170128,103.746048 78.153549,123.706818  z"/>
  <path fill="#F6F6F6" opacity="1.000000" d=" M41.840805,80.000977   C41.840328,93.973770 41.741562,107.447937 41.901447,120.919022   C41.947166,124.771400 40.750504,126.342728 36.741703,126.072998   C32.271027,125.772209 27.761599,125.911057 23.274475,126.043213   C20.663252,126.120117 19.782324,125.071449 19.790674,122.518059   C19.854860,102.890945 19.873457,83.263329 19.783766,63.636429   C19.770489,60.731312 20.899923,59.872364 23.624584,59.956207   C28.277449,60.099388 32.941074,60.099380 37.594162,59.959415   C40.931072,59.859047 41.950829,61.450153 41.873993,64.532028   C41.749657,69.518921 41.840683,74.511185 41.840805,80.000977  z"/>
</svg>
