<svg version="1.1" id="Layer_1" xmlns="http://www.w3.org/2000/svg" xmlns:xlink="http://www.w3.org/1999/xlink" x="0px" y="0px"
	 width="100%" viewBox="0 0 494 216" enable-background="new 0 0 494 216" xml:space="preserve">
<path fill="#000000" opacity="1.000000" stroke="none" 
	d="
M483.000000,217.000000 
	C322.383545,217.000000 161.767105,217.000000 1.075329,217.000000 
	C1.075329,145.072784 1.075329,73.145485 1.075329,1.109086 
	C165.542404,1.109086 330.084900,1.109086 495.000000,1.109086 
	C495.000000,66.688210 495.000000,132.377121 494.733887,198.756561 
	C490.645203,205.298035 486.822601,211.149017 483.000000,217.000000 
M60.436901,129.014572 
	C66.768181,128.352905 72.439392,129.538574 77.463158,133.902267 
	C80.538162,136.573242 84.155319,138.695206 87.745987,140.669006 
	C89.884010,141.844269 92.442528,142.254578 94.811996,143.008789 
	C95.491989,140.563324 96.387398,138.152252 96.784988,135.661697 
	C97.113052,133.606674 96.851990,131.457626 96.851990,129.014557 
	C99.943611,129.014557 102.588890,128.838242 105.201935,129.053406 
	C109.811394,129.432938 111.315002,127.422722 111.260826,122.910881 
	C111.072929,107.262550 111.070129,91.609108 111.262825,75.960892 
	C111.318169,71.466118 109.336876,70.114403 105.281204,70.123436 
	C82.304916,70.174599 59.328411,70.172531 36.352112,70.124763 
	C32.472610,70.116699 30.686113,71.456520 30.736166,75.704422 
	C30.924471,91.685783 30.896898,107.671471 30.750372,123.653709 
	C30.714777,127.536118 32.159927,129.096802 35.979210,129.045776 
	C43.803108,128.941238 51.629379,129.014511 60.436901,129.014572 
M248.580490,77.617363 
	C269.756714,85.830666 281.148590,116.309975 261.085022,140.455627 
	C262.747803,141.990158 264.420990,143.534302 266.080719,145.066025 
	C282.180878,129.450943 285.708893,97.512329 262.538818,77.534904 
	C246.489731,63.697212 218.909775,62.566830 201.634949,83.399673 
	C184.569153,103.980431 189.689819,132.146942 203.796387,144.577774 
	C205.427704,143.017273 207.038651,141.476273 208.644653,139.940002 
	C194.774704,123.940498 196.219818,104.123062 205.011505,91.164536 
	C214.949387,76.516609 230.483932,71.676559 248.580490,77.617363 
M231.573898,103.969254 
	C225.126190,107.020447 222.723633,111.539101 224.434128,117.397568 
	C226.039566,122.896248 230.837433,125.915710 236.719070,125.128906 
	C241.908966,124.434639 246.977097,119.560516 245.739227,114.523666 
	C244.368286,108.945297 247.538712,106.662109 250.558380,103.856529 
	C252.348007,102.193787 254.553009,100.978096 256.571228,99.561386 
	C256.003906,99.269539 255.436600,98.977692 254.869293,98.685837 
	C253.568115,96.983147 252.266922,95.280449 250.166565,92.531960 
	C247.386780,95.777077 244.678085,98.324669 242.729355,101.360168 
	C239.899811,105.767670 235.614471,102.345497 231.573898,103.969254 
M354.999481,94.264420 
	C357.227448,95.018120 359.455383,95.771828 362.370361,96.757942 
	C362.370361,90.808670 362.370361,86.225113 362.370361,81.127045 
	C371.079987,81.127045 379.432648,81.127045 387.790771,81.127045 
	C387.790771,78.505173 387.790771,76.426781 387.790771,74.043640 
	C379.157654,74.043640 370.728790,73.879471 362.310577,74.107986 
	C357.600586,74.235840 355.275085,77.338730 355.046356,81.857597 
	C354.853699,85.664360 354.999878,89.488274 354.999481,94.264420 
M426.427399,81.173012 
	C429.491882,81.173012 432.556366,81.173012 435.976746,81.173012 
	C435.976746,86.577698 435.976746,91.155647 435.976746,95.821060 
	C438.432068,95.821060 440.511932,95.821060 442.913269,95.821060 
	C442.913269,90.714523 443.088776,85.773399 442.853638,80.851891 
	C442.687805,77.381210 440.554810,74.587669 437.136993,74.453072 
	C428.119934,74.097931 419.079681,74.332863 410.286987,74.332863 
	C410.286987,76.797585 410.286987,78.884911 410.286987,81.173012 
	C415.532623,81.173012 420.488892,81.173012 426.427399,81.173012 
M379.456512,140.004105 
	C382.225433,140.004105 384.994354,140.004105 387.810974,140.004105 
	C387.810974,137.412598 387.810974,135.330307 387.810974,132.718933 
	C379.278046,132.718933 370.923859,132.718933 362.037628,132.718933 
	C362.037628,127.501678 362.037628,122.805183 362.037628,118.262810 
	C359.404541,118.262810 357.328369,118.262810 354.997131,118.262810 
	C354.997131,122.813606 354.917969,127.102112 355.016541,131.386520 
	C355.149353,137.159927 357.744080,139.813248 363.537598,139.974030 
	C368.510223,140.112030 373.489685,140.003571 379.456512,140.004105 
M440.517609,138.132263 
	C445.150116,131.830185 442.102661,124.817795 443.054230,118.258011 
	C440.274292,118.258011 438.183380,118.258011 435.545532,118.258011 
	C435.545532,123.219872 435.545532,127.928696 435.545532,132.975845 
	C426.755402,132.975845 418.517059,132.975845 410.180237,132.975845 
	C410.180237,135.430206 410.180237,137.511948 410.180237,140.004105 
	C417.125458,140.004105 423.898926,140.143997 430.662109,139.941132 
	C433.734558,139.848969 436.786591,139.078018 440.517609,138.132263 
z"/>
<path fill="#2B2B2B" opacity="1.000000" stroke="none" 
	d="
M483.444153,217.000000 
	C486.822601,211.149017 490.645203,205.298035 494.733887,199.223541 
	C495.000000,203.356903 495.000000,207.713806 494.653564,212.538635 
	C493.204773,214.337708 492.102356,215.668839 491.000000,217.000000 
	C488.629425,217.000000 486.258881,217.000000 483.444153,217.000000 
z"/>
<path fill="#040504" opacity="1.000000" stroke="none" 
	d="
M491.500000,217.000000 
	C492.102356,215.668839 493.204773,214.337708 494.653564,213.003296 
	C494.911499,215.016968 496.016388,217.928955 491.500000,217.000000 
z"/>
<path fill="#F7F7F7" opacity="1.000000" stroke="none" 
	d="
M59.945786,129.014572 
	C51.629379,129.014511 43.803108,128.941238 35.979210,129.045776 
	C32.159927,129.096802 30.714777,127.536118 30.750372,123.653709 
	C30.896898,107.671471 30.924471,91.685783 30.736166,75.704422 
	C30.686113,71.456520 32.472610,70.116699 36.352112,70.124763 
	C59.328411,70.172531 82.304916,70.174599 105.281204,70.123436 
	C109.336876,70.114403 111.318169,71.466118 111.262825,75.960892 
	C111.070129,91.609108 111.072929,107.262550 111.260826,122.910881 
	C111.315002,127.422722 109.811394,129.432938 105.201935,129.053406 
	C102.588890,128.838242 99.943611,129.014557 96.851990,129.014557 
	C96.851990,131.457626 97.113052,133.606674 96.784988,135.661697 
	C96.387398,138.152252 95.491989,140.563324 94.811996,143.008789 
	C92.442528,142.254578 89.884010,141.844269 87.745987,140.669006 
	C84.155319,138.695206 80.538162,136.573242 77.463158,133.902267 
	C72.439392,129.538574 66.768181,128.352905 59.945786,129.014572 
M53.502724,77.845802 
	C48.416534,77.845802 43.330349,77.845802 38.337006,77.845802 
	C38.337006,92.815681 38.337006,107.193260 38.337006,121.819214 
	C48.124519,121.819214 57.596279,121.580643 67.044220,121.950485 
	C70.288086,122.077477 73.714928,123.263016 76.625763,124.789513 
	C80.747879,126.951210 84.469315,129.876953 89.160721,133.009476 
	C89.160721,128.705414 89.160721,125.477142 89.160721,121.730110 
	C94.319084,121.730110 99.041847,121.730110 103.688873,121.730110 
	C103.688873,106.801796 103.688873,92.405121 103.688873,77.845802 
	C87.092583,77.845802 70.797020,77.845802 53.502724,77.845802 
z"/>
<path fill="#F0F0F0" opacity="1.000000" stroke="none" 
	d="
M248.248993,77.402962 
	C230.483932,71.676559 214.949387,76.516609 205.011505,91.164536 
	C196.219818,104.123062 194.774704,123.940498 208.644653,139.940002 
	C207.038651,141.476273 205.427704,143.017273 203.796387,144.577774 
	C189.689819,132.146942 184.569153,103.980431 201.634949,83.399673 
	C218.909775,62.566830 246.489731,63.697212 262.538818,77.534904 
	C285.708893,97.512329 282.180878,129.450943 266.080719,145.066025 
	C264.420990,143.534302 262.747803,141.990158 261.085022,140.455627 
	C281.148590,116.309975 269.756714,85.830666 248.248993,77.402962 
z"/>
<path fill="#F5F5F5" opacity="1.000000" stroke="none" 
	d="
M231.954544,103.902069 
	C235.614471,102.345497 239.899811,105.767670 242.729355,101.360168 
	C244.678085,98.324669 247.386780,95.777077 250.166565,92.531960 
	C252.266922,95.280449 253.568115,96.983147 254.869293,98.685837 
	C255.436600,98.977692 256.003906,99.269539 256.571228,99.561386 
	C254.553009,100.978096 252.348007,102.193787 250.558380,103.856529 
	C247.538712,106.662109 244.368286,108.945297 245.739227,114.523666 
	C246.977097,119.560516 241.908966,124.434639 236.719070,125.128906 
	C230.837433,125.915710 226.039566,122.896248 224.434128,117.397568 
	C222.723633,111.539101 225.126190,107.020447 231.954544,103.902069 
z"/>
<path fill="#FDFDFD" opacity="1.000000" stroke="none" 
	d="
M354.997772,93.784508 
	C354.999878,89.488274 354.853699,85.664360 355.046356,81.857597 
	C355.275085,77.338730 357.600586,74.235840 362.310577,74.107986 
	C370.728790,73.879471 379.157654,74.043640 387.790771,74.043640 
	C387.790771,76.426781 387.790771,78.505173 387.790771,81.127045 
	C379.432648,81.127045 371.079987,81.127045 362.370361,81.127045 
	C362.370361,86.225113 362.370361,90.808670 362.370361,96.757942 
	C359.455383,95.771828 357.227448,95.018120 354.997772,93.784508 
z"/>
<path fill="#FDFDFD" opacity="1.000000" stroke="none" 
	d="
M425.936279,81.173012 
	C420.488892,81.173012 415.532623,81.173012 410.286987,81.173012 
	C410.286987,78.884911 410.286987,76.797585 410.286987,74.332863 
	C419.079681,74.332863 428.119934,74.097931 437.136993,74.453072 
	C440.554810,74.587669 442.687805,77.381210 442.853638,80.851891 
	C443.088776,85.773399 442.913269,90.714523 442.913269,95.821060 
	C440.511932,95.821060 438.432068,95.821060 435.976746,95.821060 
	C435.976746,91.155647 435.976746,86.577698 435.976746,81.173012 
	C432.556366,81.173012 429.491882,81.173012 425.936279,81.173012 
z"/>
<path fill="#FDFDFD" opacity="1.000000" stroke="none" 
	d="
M378.961304,140.004105 
	C373.489685,140.003571 368.510223,140.112030 363.537598,139.974030 
	C357.744080,139.813248 355.149353,137.159927 355.016541,131.386520 
	C354.917969,127.102112 354.997131,122.813606 354.997131,118.262810 
	C357.328369,118.262810 359.404541,118.262810 362.037628,118.262810 
	C362.037628,122.805183 362.037628,127.501678 362.037628,132.718933 
	C370.923859,132.718933 379.278046,132.718933 387.810974,132.718933 
	C387.810974,135.330307 387.810974,137.412598 387.810974,140.004105 
	C384.994354,140.004105 382.225433,140.004105 378.961304,140.004105 
z"/>
<path fill="#FDFDFD" opacity="1.000000" stroke="none" 
	d="
M440.182739,138.373611 
	C436.786591,139.078018 433.734558,139.848969 430.662109,139.941132 
	C423.898926,140.143997 417.125458,140.004105 410.180237,140.004105 
	C410.180237,137.511948 410.180237,135.430206 410.180237,132.975845 
	C418.517059,132.975845 426.755402,132.975845 435.545532,132.975845 
	C435.545532,127.928696 435.545532,123.219872 435.545532,118.258011 
	C438.183380,118.258011 440.274292,118.258011 443.054230,118.258011 
	C442.102661,124.817795 445.150116,131.830185 440.182739,138.373611 
z"/>
<path fill="#030303" opacity="1.000000" stroke="none" 
	d="
M54.002087,77.845802 
	C70.797020,77.845802 87.092583,77.845802 103.688873,77.845802 
	C103.688873,92.405121 103.688873,106.801796 103.688873,121.730110 
	C99.041847,121.730110 94.319084,121.730110 89.160721,121.730110 
	C89.160721,125.477142 89.160721,128.705414 89.160721,133.009476 
	C84.469315,129.876953 80.747879,126.951210 76.625763,124.789513 
	C73.714928,123.263016 70.288086,122.077477 67.044220,121.950485 
	C57.596279,121.580643 48.124519,121.819214 38.337006,121.819214 
	C38.337006,107.193260 38.337006,92.815681 38.337006,77.845802 
	C43.330349,77.845802 48.416534,77.845802 54.002087,77.845802 
M60.475544,110.874016 
	C63.902977,110.874016 67.330414,110.874016 70.814575,110.874016 
	C70.814575,108.067787 70.814575,105.815033 70.814575,103.425781 
	C62.247242,103.425781 53.898926,103.425781 45.411362,103.425781 
	C45.411362,105.951782 45.411362,108.175552 45.411362,110.874016 
	C50.284172,110.874016 54.884689,110.874016 60.475544,110.874016 
M96.832016,92.460342 
	C96.174103,91.254410 95.548393,89.021454 94.853355,88.999664 
	C86.957954,88.752121 79.051956,88.842537 71.258942,88.842537 
	C71.258942,91.568672 71.258942,93.647575 71.258942,95.999290 
	C78.967346,95.999290 86.423370,96.097939 93.870346,95.883141 
	C94.880592,95.854012 95.845535,94.254333 96.832016,92.460342 
M94.120888,103.116196 
	C88.884041,103.116196 83.647194,103.116196 78.447556,103.116196 
	C78.447556,106.045044 78.447556,108.271889 78.447556,110.604546 
	C84.657646,110.604546 90.532623,110.604546 97.730667,110.604546 
	C96.684425,107.700920 95.860962,105.415573 94.120888,103.116196 
M61.206261,96.007454 
	C66.673523,95.262451 62.550541,91.464630 63.915905,89.210785 
	C57.333160,89.210785 51.311779,89.210785 45.495201,89.210785 
	C45.495201,91.671997 45.495201,93.737427 45.495201,96.008072 
	C50.641266,96.008072 55.450466,96.008072 61.206261,96.007454 
z"/>
<path fill="#EDEDED" opacity="1.000000" stroke="none" 
	d="
M59.980373,110.874016 
	C54.884689,110.874016 50.284172,110.874016 45.411362,110.874016 
	C45.411362,108.175552 45.411362,105.951782 45.411362,103.425781 
	C53.898926,103.425781 62.247242,103.425781 70.814575,103.425781 
	C70.814575,105.815033 70.814575,108.067787 70.814575,110.874016 
	C67.330414,110.874016 63.902977,110.874016 59.980373,110.874016 
z"/>
<path fill="#FDFDFD" opacity="1.000000" stroke="none" 
	d="
M96.831734,92.921097 
	C95.845535,94.254333 94.880592,95.854012 93.870346,95.883141 
	C86.423370,96.097939 78.967346,95.999290 71.258942,95.999290 
	C71.258942,93.647575 71.258942,91.568672 71.258942,88.842537 
	C79.051956,88.842537 86.957954,88.752121 94.853355,88.999664 
	C95.548393,89.021454 96.174103,91.254410 96.831734,92.921097 
z"/>
<path fill="#E8E8E8" opacity="1.000000" stroke="none" 
	d="
M94.579193,103.123215 
	C95.860962,105.415573 96.684425,107.700920 97.730667,110.604546 
	C90.532623,110.604546 84.657646,110.604546 78.447556,110.604546 
	C78.447556,108.271889 78.447556,106.045044 78.447556,103.116196 
	C83.647194,103.116196 88.884041,103.116196 94.579193,103.123215 
z"/>
<path fill="#F8F8F8" opacity="1.000000" stroke="none" 
	d="
M60.732964,96.007767 
	C55.450466,96.008072 50.641266,96.008072 45.495201,96.008072 
	C45.495201,93.737427 45.495201,91.671997 45.495201,89.210785 
	C51.311779,89.210785 57.333160,89.210785 63.915905,89.210785 
	C62.550541,91.464630 66.673523,95.262451 60.732964,96.007767 
z"/>
</svg>