<svg xmlns="http://www.w3.org/2000/svg"
     viewBox="350.947 69.987 96.178 74.065"
     width="96.178" height="74.065" fill="none">
  <path fill="#FDFDFD" opacity="1.000000" d=" M354.997772,93.784508   C354.999878,89.488274 354.853699,85.664360 355.046356,81.857597   C355.275085,77.338730 357.600586,74.235840 362.310577,74.107986   C370.728790,73.879471 379.157654,74.043640 387.790771,74.043640   C387.790771,76.426781 387.790771,78.505173 387.790771,81.127045   C379.432648,81.127045 371.079987,81.127045 362.370361,81.127045   C362.370361,86.225113 362.370361,90.808670 362.370361,96.757942   C359.455383,95.771828 357.227448,95.018120 354.997772,93.784508  z"/>
  <path fill="#FDFDFD" opacity="1.000000" d=" M425.936279,81.173012   C420.488892,81.173012 415.532623,81.173012 410.286987,81.173012   C410.286987,78.884911 410.286987,76.797585 410.286987,74.332863   C419.079681,74.332863 428.119934,74.097931 437.136993,74.453072   C440.554810,74.587669 442.687805,77.381210 442.853638,80.851891   C443.088776,85.773399 442.913269,90.714523 442.913269,95.821060   C440.511932,95.821060 438.432068,95.821060 435.976746,95.821060   C435.976746,91.155647 435.976746,86.577698 435.976746,81.173012   C432.556366,81.173012 429.491882,81.173012 425.936279,81.173012  z"/>
  <path fill="#FDFDFD" opacity="1.000000" d=" M378.961304,140.004105   C373.489685,140.003571 368.510223,140.112030 363.537598,139.974030   C357.744080,139.813248 355.149353,137.159927 355.016541,131.386520   C354.917969,127.102112 354.997131,122.813606 354.997131,118.262810   C357.328369,118.262810 359.404541,118.262810 362.037628,118.262810   C362.037628,122.805183 362.037628,127.501678 362.037628,132.718933   C370.923859,132.718933 379.278046,132.718933 387.810974,132.718933   C387.810974,135.330307 387.810974,137.412598 387.810974,140.004105   C384.994354,140.004105 382.225433,140.004105 378.961304,140.004105  z"/>
  <path fill="#FDFDFD" opacity="1.000000" d=" M440.182739,138.373611   C436.786591,139.078018 433.734558,139.848969 430.662109,139.941132   C423.898926,140.143997 417.125458,140.004105 410.180237,140.004105   C410.180237,137.511948 410.180237,135.430206 410.180237,132.975845   C418.517059,132.975845 426.755402,132.975845 435.545532,132.975845   C435.545532,127.928696 435.545532,123.219872 435.545532,118.258011   C438.183380,118.258011 440.274292,118.258011 443.054230,118.258011   C442.102661,124.817795 445.150116,131.830185 440.182739,138.373611  z"/>
</svg>
