<svg xmlns="http://www.w3.org/2000/svg"
     viewBox="186.869 63.405 96.167 85.661"
     width="96.167" height="85.661" fill="none">
  <path fill="#F0F0F0" opacity="1.000000" d=" M248.248993,77.402962   C230.483932,71.676559 214.949387,76.516609 205.011505,91.164536   C196.219818,104.123062 194.774704,123.940498 208.644653,139.940002   C207.038651,141.476273 205.427704,143.017273 203.796387,144.577774   C189.689819,132.146942 184.569153,103.980431 201.634949,83.399673   C218.909775,62.566830 246.489731,63.697212 262.538818,77.534904   C285.708893,97.512329 282.180878,129.450943 266.080719,145.066025   C264.420990,143.534302 262.747803,141.990158 261.085022,140.455627   C281.148590,116.309975 269.756714,85.830666 248.248993,77.402962  z"/>
  <path fill="#F5F5F5" opacity="1.000000" d=" M231.954544,103.902069   C235.614471,102.345497 239.899811,105.767670 242.729355,101.360168   C244.678085,98.324669 247.386780,95.777077 250.166565,92.531960   C252.266922,95.280449 253.568115,96.983147 254.869293,98.685837   C255.436600,98.977692 256.003906,99.269539 256.571228,99.561386   C254.553009,100.978096 252.348007,102.193787 250.558380,103.856529   C247.538712,106.662109 244.368286,108.945297 245.739227,114.523666   C246.977097,119.560516 241.908966,124.434639 236.719070,125.128906   C230.837433,125.915710 226.039566,122.896248 224.434128,117.397568   C222.723633,111.539101 225.126190,107.020447 231.954544,103.902069  z"/>
</svg>
